<svg fill="none" height="21" viewBox="0 0 21 21" width="21" xmlns="http://www.w3.org/2000/svg"><path clip-rule="evenodd" d="m7.5 1.5h-6v6h6zm-6-1.5h-1.5v1.5 6 1.5h1.5 6 1.5v-1.5-6-1.5h-1.5zm3 3h-1.5v1.5 1.5h1.5 1.5v-1.5-1.5zm-3 16.5v-6h6v6zm-1.5-7.5h1.5 6 1.5v1.5 6 1.5h-1.5-6-1.5v-1.5-6zm4.5 3h-1.5v1.5 1.5h1.5 1.5v-1.5-1.5zm9-13.5h6v6h-6zm-1.5-1.5h1.5 6 1.5v1.5 6 1.5h-1.5-6-1.5v-1.5-6zm4.5 3h-1.5v1.5 1.5h1.5 1.5v-1.5-1.5zm0 9h-4.5v9h1.5v-4.5h1.5v1.5h6v-6h-1.5v1.5h-3zm1.5 7.5h-1.5v1.5h1.5zm1.5 0h1.5v1.5h-1.5z" fill="#000" fill-rule="evenodd"/></svg>