<svg fill="none" height="225" viewBox="0 0 225 225" width="225" xmlns="http://www.w3.org/2000/svg" xmlns:xlink="http://www.w3.org/1999/xlink"><radialGradient id="a" cx="0" cy="0" gradientTransform="matrix(75.21801755 -50.64604186 46.53608285 69.11402684 134.41 68.3006)" gradientUnits="userSpaceOnUse" r="1"><stop offset=".661458" stop-color="#c4fcf8"/><stop offset="1" stop-color="#fff" stop-opacity="0"/></radialGradient><radialGradient id="b" cx="0" cy="0" gradientTransform="matrix(194.6691331 -87.32692311 80.24037721 178.87180854 42.7873 129.218)" gradientUnits="userSpaceOnUse" r="1"><stop offset="0" stop-color="#f09" stop-opacity=".9"/><stop offset=".770833" stop-color="#fff" stop-opacity="0"/></radialGradient><radialGradient id="c" cx="0" cy="0" gradientTransform="matrix(63.86332198 -86.27734969 79.27570429 58.68063688 176.854 148.655)" gradientUnits="userSpaceOnUse" r="1"><stop offset="0" stop-color="#ffec43"/><stop offset=".805707" stop-color="#fff6a8" stop-opacity="0"/></radialGradient><radialGradient id="d" cx="0" cy="0" gradientTransform="matrix(128.44160686 47.74046873 -43.86623948 118.01832774 57.5443 53.4752)" gradientUnits="userSpaceOnUse" r="1"><stop offset=".125" stop-color="#5886fe" stop-opacity=".46"/><stop offset=".673044" stop-color="#fff" stop-opacity="0"/></radialGradient><path d="m74.8125 190.529c-9.0564-.016-19.2827-6.781-22.841-15.109l-32.0298-74.964c-3.5583-8.3283.8987-15.066 9.9551-15.0492l81.5202.1511c9.056.0168 19.282 6.7816 22.841 15.1101l32.03 74.964c3.558 8.328-.899 15.065-9.956 15.049z" fill="#131313"/><path d="m92.1541 164.065c-9.0564-.016-19.2826-6.781-22.8409-15.109l-41.0129-95.9888c-3.5584-8.3281.8987-15.0657 9.9551-15.049l104.3826.1935c9.057.0168 19.283 6.7816 22.841 15.1097l41.013 95.9886c3.559 8.328-.898 15.066-9.955 15.049z" fill="#fff"/><path d="m92.1541 164.065c-9.0564-.016-19.2826-6.781-22.8409-15.109l-41.0129-95.9888c-3.5584-8.3281.8987-15.0657 9.9551-15.049l104.3826.1935c9.057.0168 19.283 6.7816 22.841 15.1097l41.013 95.9886c3.559 8.328-.898 15.066-9.955 15.049z" fill="url(#a)"/><path d="m92.1541 164.065c-9.0564-.016-19.2826-6.781-22.8409-15.109l-41.0129-95.9888c-3.5584-8.3281.8987-15.0657 9.9551-15.049l104.3826.1935c9.057.0168 19.283 6.7816 22.841 15.1097l41.013 95.9886c3.559 8.328-.898 15.066-9.955 15.049z" fill="url(#b)"/><path d="m92.1541 164.065c-9.0564-.016-19.2826-6.781-22.8409-15.109l-41.0129-95.9888c-3.5584-8.3281.8987-15.0657 9.9551-15.049l104.3826.1935c9.057.0168 19.283 6.7816 22.841 15.1097l41.013 95.9886c3.559 8.328-.898 15.066-9.955 15.049z" fill="url(#c)"/><path d="m92.1541 164.065c-9.0564-.016-19.2826-6.781-22.8409-15.109l-41.0129-95.9888c-3.5584-8.3281.8987-15.0657 9.9551-15.049l104.3826.1935c9.057.0168 19.283 6.7816 22.841 15.1097l41.013 95.9886c3.559 8.328-.898 15.066-9.955 15.049z" fill="url(#d)"/><g fill="#131313"><path clip-rule="evenodd" d="m92.958 165.95c-10.1885-.019-21.693-7.629-25.6961-16.998l-41.013-95.9888c-4.0031-9.3691 1.0111-16.9489 11.1996-16.93l104.3835.1934c10.188.0189 21.693 7.6293 25.696 16.9984l41.013 95.989c4.003 9.369-1.011 16.949-11.2 16.93zm-21.5966-16.991c3.1136 7.287 12.0615 13.207 19.9859 13.221l104.3827.194c7.925.014 11.825-5.881 8.711-13.168l-41.013-95.9886c-3.113-7.287-12.061-13.2063-19.986-13.221l-104.3828-.1934c-7.9243-.0147-11.8243 5.8807-8.7107 13.1678z" fill-rule="evenodd"/><path d="m68.565 53.3425c12.6131.0234 26.8555 9.445 31.811 21.0437 4.956 11.5988-1.2514 20.9825-13.8645 20.9592-12.6131-.0234-26.8556-9.445-31.8114-21.0438s1.2517-20.9825 13.8649-20.9591z"/><path d="m90.6891 104.981c12.6129.023 26.8559 9.444 31.8109 21.043 4.956 11.599-1.251 20.983-13.864 20.959-12.6135-.023-26.8559-9.445-31.8117-21.043-4.9558-11.599 1.2517-20.983 13.8648-20.959z"/><path d="m147.538 105.142c12.613.024 26.856 9.445 31.811 21.044 4.956 11.599-1.251 20.982-13.864 20.959-12.614-.023-26.856-9.445-31.812-21.044-4.956-11.598 1.252-20.982 13.865-20.959z"/></g></svg>